# This file uses meters as units for non-parametric coordinates.

mtllib Cartel CR.mtl
g default
v -2.227275 55.784944 50.317942
v 2.227275 55.784944 50.317942
v -2.227275 73.082324 50.317942
v 2.227275 73.082324 50.317942
v -2.227275 73.082324 -0.596124
v 2.227275 73.082324 -0.596124
v -2.227275 55.784944 -0.596124
v 2.227275 55.784944 -0.596124
v -2.227275 64.433632 60.901864
v 2.227275 64.433632 60.901864
vt 0.186711 0.977040
vt 0.364564 0.638474
vt 0.017748 0.469954
vt 0.020919 0.842323
vt 0.185965 0.706694
vt 0.540023 0.638161
vt 0.979392 0.609022
vt 0.981717 0.704497
vt 0.977839 0.637379
vt 0.982463 0.974843
vt 0.452294 0.638317
vt 0.182812 0.605914
vt 0.866816 0.637578
vt 0.037772 0.639057
vt 0.980448 0.338394
vt 0.866867 0.666169
vt 0.037823 0.667649
vt 0.977890 0.665971
vt 0.452345 0.666909
vt 0.540074 0.666752
vt 0.183868 0.335286
vt 0.364615 0.667066
vn 0.000000 -0.774347 0.632761
vn 0.000000 -0.774347 0.632761
vn 0.000000 0.000000 1.000000
vn 0.000000 0.000000 1.000000
vn 0.000000 1.000000 0.000000
vn 0.000000 1.000000 0.000000
vn 0.000000 1.000000 0.000000
vn 0.000000 1.000000 0.000000
vn 0.000000 0.000000 -1.000000
vn 0.000000 0.000000 -1.000000
vn 0.000000 0.000000 -1.000000
vn 0.000000 0.000000 -1.000000
vn 0.000000 -1.000000 0.000000
vn 0.000000 -1.000000 0.000000
vn 0.000000 -1.000000 0.000000
vn 0.000000 -1.000000 0.000000
vn 1.000000 -0.000000 0.000000
vn 1.000000 -0.000000 0.000000
vn 1.000000 -0.000000 0.000000
vn 1.000000 -0.000000 0.000000
vn -1.000000 0.000000 0.000000
vn -1.000000 0.000000 0.000000
vn -1.000000 0.000000 0.000000
vn 0.000000 0.774347 0.632761
vn 0.000000 0.774347 0.632761
vn 1.000000 0.000000 0.000000
vn 1.000000 0.000000 0.000000
vn 1.000000 0.000000 0.000000
vn -1.000000 -0.000000 0.000000
vn -1.000000 -0.000000 0.000000
vn -1.000000 -0.000000 0.000000
vn -1.000000 -0.000000 0.000000
s 1
g Tablon Cartel1
usemtl lambert2SG
f 1/22/1 2/2/2 10/11/3 9/19/4
s off
f 3/20/5 4/6/6 6/13/7 5/16/8
f 6/13/9 8/9/10 7/18/11 5/16/12
f 7/17/13 8/14/14 2/2/15 1/22/16
f 10/3/17 2/21/18 8/15/19 6/7/20
f 5/8/21 9/4/22 3/5/23
s 1
f 9/19/4 10/11/3 4/6/24 3/20/25
s off
f 10/3/26 6/7/27 4/12/28
f 5/8/29 7/10/30 1/1/31 9/4/32
g default
v -1.116034 -0.110231 27.178520
v 1.285552 -0.110231 27.178520
v -1.116034 55.784944 27.178520
v 1.285552 55.784944 27.178520
v -1.116034 55.784944 23.232739
v 1.285552 55.784944 23.232739
v -1.116034 -0.110231 23.232739
v 1.285552 -0.110231 23.232739
vt 0.984910 0.159853
vt 0.984854 0.201208
vt 0.022356 0.199925
vt 0.022411 0.158570
vt 0.022501 0.090625
vt 0.022557 0.049270
vt 0.984764 0.269153
vt 0.985000 0.091908
vt 0.022265 0.267870
vt 0.985055 0.050553
vn 0.000000 0.000000 1.000000
vn 0.000000 0.000000 1.000000
vn 0.000000 0.000000 1.000000
vn 0.000000 0.000000 1.000000
vn 0.000000 0.000000 -1.000000
vn 0.000000 0.000000 -1.000000
vn 0.000000 0.000000 -1.000000
vn 0.000000 0.000000 -1.000000
vn 1.000000 0.000000 0.000000
vn 1.000000 0.000000 0.000000
vn 1.000000 0.000000 0.000000
vn 1.000000 0.000000 0.000000
vn -1.000000 0.000000 0.000000
vn -1.000000 0.000000 0.000000
vn -1.000000 0.000000 0.000000
vn -1.000000 0.000000 0.000000
s off
g Cartel1 Palo
usemtl lambert2SG
f 11/23/33 12/24/34 14/25/35 13/26/36
f 15/27/37 16/28/38 18/32/39 17/30/40
f 12/24/41 18/29/42 16/31/43 14/25/44
f 17/30/45 11/23/46 13/26/47 15/27/48
